<svg width="393" height="613" viewBox="0 0 393 613" fill="none" xmlns="http://www.w3.org/2000/svg">
<g opacity="0.8">
<path d="M28.2656 105.469C68.1239 94.5865 141.401 73.1407 152.474 67.0508C164.239 60.5803 218.368 32.4539 258.58 40.0422C298.792 47.6306 323.345 109.553 333.366 122.658C346.159 139.386 368.888 150.321 392.004 154.683C410.827 158.235 428.591 158.009 449.684 158.922" stroke="#FDFDFD" stroke-opacity="0.17"/>
<path d="M42.5106 108.157C82.3689 97.2747 155.646 75.8289 166.719 69.739C178.484 63.2685 232.613 35.142 272.825 42.7304C313.037 50.3188 337.59 112.241 347.611 125.346C360.404 142.074 383.133 153.009 406.249 157.371C425.072 160.923 442.836 160.697 463.929 161.61" stroke="#FDFDFD" stroke-opacity="0.17"/>
<path d="M56.7557 110.845C96.614 99.9629 169.891 78.517 180.964 72.4272C192.729 65.9567 246.858 37.8302 287.07 45.4186C327.282 53.007 351.835 114.929 361.857 128.034C374.649 144.762 397.378 155.697 420.495 160.059C439.317 163.611 457.081 163.385 478.174 164.298" stroke="#FDFDFD" stroke-opacity="0.17"/>
<path d="M71.0007 113.533C110.859 102.651 184.136 81.2052 195.209 75.1153C206.974 68.6448 261.103 40.5183 301.315 48.1067C341.527 55.6951 366.08 117.617 376.102 130.722C388.894 147.45 411.623 158.385 434.74 162.747C453.562 166.299 471.326 166.073 492.419 166.986" stroke="#FDFDFD" stroke-opacity="0.17"/>
<path d="M85.2457 116.221C125.104 105.339 198.381 83.8933 209.454 77.8035C221.219 71.333 275.348 43.2065 315.56 50.7949C355.772 58.3832 380.325 120.306 390.347 133.41C403.139 150.138 425.868 161.073 448.985 165.436C467.807 168.988 485.571 168.761 506.664 169.674" stroke="#FDFDFD" stroke-opacity="0.17"/>
<path d="M-1.52258 106.971C38.3357 96.0888 111.612 74.643 122.685 68.5531C134.45 62.0827 188.579 33.9562 228.792 41.5446C269.004 49.1329 293.557 111.055 303.578 124.16C316.37 140.888 339.1 151.823 362.216 156.185C381.039 159.737 398.803 159.511 419.895 160.424" stroke="#FDFDFD" stroke-opacity="0.17"/>
<path d="M-3.93323 119.746C35.925 108.863 109.202 87.4176 120.275 81.3277C132.04 74.8572 186.169 46.7307 226.381 54.3191C266.593 61.9075 291.146 123.83 301.168 136.935C313.96 153.663 336.689 164.598 359.806 168.96C378.628 172.512 396.392 172.285 417.485 173.199" stroke="#FDFDFD" stroke-opacity="0.17"/>
<path d="M-6.34387 132.52C33.5144 121.638 106.791 100.192 117.864 94.1022C129.629 87.6317 183.758 59.5053 223.97 67.0936C264.183 74.682 288.736 136.604 298.757 149.709C311.549 166.437 334.278 177.372 357.395 181.734C376.218 185.286 393.981 185.06 415.074 185.973" stroke="#FDFDFD" stroke-opacity="0.17"/>
<path d="M-8.75451 145.295C31.1037 134.412 104.381 112.967 115.453 106.877C127.218 100.406 181.347 72.2798 221.56 79.8682C261.772 87.4565 286.325 149.379 296.346 162.484C309.138 179.212 331.868 190.147 354.984 194.509C373.807 198.061 391.571 197.834 412.664 198.748" stroke="#FDFDFD" stroke-opacity="0.17"/>
<path d="M28.0201 118.521C67.8784 107.638 141.155 86.1926 152.228 80.1027C163.993 73.6322 218.122 45.5058 258.334 53.0941C298.547 60.6825 323.1 122.605 333.121 135.71C345.913 152.438 368.642 163.373 391.759 167.735C410.582 171.287 428.345 171.06 449.438 171.974" stroke="#FDFDFD" stroke-opacity="0.17"/>
<path d="M42.2651 121.209C82.1234 110.327 155.4 88.8807 166.473 82.7909C178.238 76.3204 232.367 48.1939 272.579 55.7823C312.792 63.3707 337.345 125.293 347.366 138.398C360.158 155.126 382.887 166.061 406.004 170.423C424.827 173.975 442.59 173.749 463.683 174.662" stroke="#FDFDFD" stroke-opacity="0.17"/>
<path d="M56.5103 123.897C96.3685 113.015 169.645 91.5689 180.718 85.4791C192.483 79.0086 246.612 50.8821 286.824 58.4705C327.037 66.0588 351.59 127.981 361.611 141.086C374.403 157.814 397.133 168.749 420.249 173.111C439.072 176.663 456.835 176.437 477.928 177.35" stroke="#FDFDFD" stroke-opacity="0.17"/>
<path d="M70.7553 126.585C110.613 115.703 183.89 94.257 194.963 88.1672C206.728 81.6967 260.857 53.5702 301.069 61.1586C341.282 68.7469 365.835 130.669 375.856 143.774C388.648 160.502 411.378 171.437 434.494 175.799C453.317 179.351 471.08 179.125 492.173 180.038" stroke="#FDFDFD" stroke-opacity="0.17"/>
<path d="M85.0002 129.273C124.858 118.391 198.135 96.9452 209.208 90.8553C220.973 84.3849 275.102 56.2584 315.314 63.8467C355.527 71.4351 380.08 133.357 390.101 146.462C402.893 163.19 425.623 174.125 448.739 178.487C467.562 182.039 485.325 181.813 506.418 182.726" stroke="#FDFDFD" stroke-opacity="0.17"/>
<path d="M-1.76806 120.023C38.0902 109.141 111.367 87.6949 122.44 81.605C134.205 75.1345 188.334 47.0081 228.546 54.5964C268.758 62.1848 293.311 124.107 303.333 137.212C316.125 153.94 338.854 164.875 361.971 169.237C380.794 172.789 398.557 172.563 419.65 173.476" stroke="#FDFDFD" stroke-opacity="0.17"/>
<path d="M-4.17871 132.797C35.6795 121.915 108.956 100.469 120.029 94.3796C131.794 87.9091 185.923 59.7826 226.135 67.371C266.348 74.9593 290.901 136.882 300.922 149.986C313.714 166.714 336.444 177.649 359.56 182.012C378.383 185.564 396.147 185.337 417.239 186.25" stroke="#FDFDFD" stroke-opacity="0.17"/>
<path d="M-6.58935 145.572C33.2689 134.69 106.546 113.244 117.619 107.154C129.384 100.684 183.513 72.5571 223.725 80.1455C263.937 87.7339 288.49 149.656 298.511 162.761C311.304 179.489 334.033 190.424 357.149 194.786C375.972 198.338 393.736 198.112 414.829 199.025" stroke="#FDFDFD" stroke-opacity="0.17"/>
<path d="M-9 158.346C30.8582 147.464 104.135 126.019 115.208 119.929C126.973 113.458 181.102 85.3317 221.314 92.92C261.526 100.508 286.079 162.431 296.101 175.536C308.893 192.263 331.622 203.198 354.739 207.561C373.562 211.113 391.325 210.886 412.418 211.799" stroke="#FDFDFD" stroke-opacity="0.17"/>
<path d="M6.31545 68.1399C49.4941 70.0626 129.273 72.2106 142.116 69.791C155.761 67.2202 218.088 56.9749 256.52 76.7977C294.952 96.6205 302.589 163.902 309.068 179.643C317.339 199.735 337.226 217.341 359.319 228.736C377.309 238.015 395.275 243.325 416.281 250.769" stroke="#FDFDFD" stroke-opacity="0.17"/>
<path d="M19.9298 75.1621C63.1085 77.0848 142.888 79.2328 155.73 76.8132C169.376 74.2424 231.702 63.9971 270.134 83.8199C308.566 103.643 316.203 170.924 322.683 186.665C330.954 206.758 350.841 224.363 372.934 235.758C390.923 245.037 408.889 250.347 429.896 257.791" stroke="#FDFDFD" stroke-opacity="0.17"/>
<path d="M33.5443 82.1842C76.723 84.1069 156.502 86.2549 169.345 83.8353C182.99 81.2645 245.317 71.0192 283.749 90.842C322.181 110.665 329.818 177.947 336.297 193.687C344.568 213.78 364.455 231.385 386.548 242.781C404.538 252.059 422.504 257.369 443.51 264.813" stroke="#FDFDFD" stroke-opacity="0.17"/>
<path d="M47.1587 89.2064C90.3374 91.1291 170.117 93.2771 182.959 90.8575C196.605 88.2867 258.931 78.0414 297.363 97.8642C335.795 117.687 343.432 184.969 349.912 200.709C358.182 220.802 378.069 238.407 400.163 249.803C418.152 259.081 436.118 264.391 457.125 271.835" stroke="#FDFDFD" stroke-opacity="0.17"/>
<path d="M60.7731 96.2285C103.952 98.1512 183.731 100.299 196.574 97.8796C210.219 95.3088 272.545 85.0635 310.977 104.886C349.41 124.709 357.047 191.991 363.526 207.731C371.797 227.824 391.684 245.429 413.777 256.825C431.766 266.104 449.732 271.414 470.739 278.857" stroke="#FDFDFD" stroke-opacity="0.17"/>
<path d="M-24.1223 60.3168C19.0564 62.2395 98.8355 64.3875 111.678 61.9679C125.324 59.3971 187.65 49.1518 226.082 68.9746C264.514 88.7974 272.151 156.079 278.631 171.82C286.901 191.912 306.788 209.518 328.882 220.913C346.871 230.192 364.837 235.502 385.844 242.945" stroke="#FDFDFD" stroke-opacity="0.17"/>
<path d="M-30.0815 71.8705C13.0972 73.7932 92.8763 75.9412 105.719 73.5216C119.364 70.9508 181.691 60.7055 220.123 80.5283C258.555 100.351 266.192 167.633 272.671 183.373C280.942 203.466 300.829 221.071 322.922 232.467C340.912 241.746 358.878 247.056 379.884 254.499" stroke="#FDFDFD" stroke-opacity="0.17"/>
<path d="M-36.0408 83.4242C7.13795 85.3468 86.917 87.4949 99.7598 85.0753C113.405 82.5045 175.731 72.2592 214.164 92.082C252.596 111.905 260.233 179.187 266.712 194.927C274.983 215.02 294.87 232.625 316.963 244.02C334.953 253.299 352.919 258.609 373.925 266.053" stroke="#FDFDFD" stroke-opacity="0.17"/>
<path d="M-42 94.9778C1.17872 96.9005 80.9578 99.0485 93.8005 96.6289C107.446 94.0581 169.772 83.8128 208.204 103.636C246.636 123.458 254.273 190.74 260.753 206.481C269.024 226.573 288.911 244.179 311.004 255.574C328.993 264.853 346.959 270.163 367.966 277.606" stroke="#FDFDFD" stroke-opacity="0.17"/>
<path d="M-47.6846 45.1399C-4.50585 47.0626 75.2732 49.2106 88.116 46.791C101.761 44.2202 164.088 33.9749 202.52 53.7977C240.952 73.6205 248.589 140.902 255.068 156.643C263.339 176.735 283.226 194.341 305.319 205.736C323.309 215.015 341.275 220.325 362.281 227.769" stroke="#FDFDFD" stroke-opacity="0.17"/>
<path d="M-34.0702 52.162C9.10853 54.0847 88.8876 56.2327 101.73 53.8131C115.376 51.2423 177.702 40.997 216.134 60.8198C254.566 80.6426 262.203 147.924 268.683 163.665C276.954 183.757 296.841 201.363 318.934 212.758C336.923 222.037 354.889 227.347 375.896 234.791" stroke="#FDFDFD" stroke-opacity="0.17"/>
<path d="M-20.4557 59.1842C22.723 61.1069 102.502 63.2549 115.345 60.8353C128.99 58.2645 191.317 48.0192 229.749 67.842C268.181 87.6648 275.818 154.947 282.297 170.687C290.568 190.78 310.455 208.385 332.548 219.78C350.538 229.059 368.504 234.369 389.51 241.813" stroke="#FDFDFD" stroke-opacity="0.17"/>
<path d="M-6.84129 66.2063C36.3374 68.129 116.117 70.277 128.959 67.8574C142.605 65.2866 204.931 55.0413 243.363 74.8641C281.795 94.6869 289.432 161.969 295.912 177.709C304.182 197.802 324.069 215.407 346.163 226.803C364.152 236.081 382.118 241.391 403.125 248.835" stroke="#FDFDFD" stroke-opacity="0.17"/>
<path d="M6.77309 73.2285C49.9518 75.1512 129.731 77.2992 142.574 74.8796C156.219 72.3088 218.545 62.0635 256.977 81.8863C295.41 101.709 303.047 168.991 309.526 184.731C317.797 204.824 337.684 222.429 359.777 233.825C377.766 243.104 395.732 248.414 416.739 255.857" stroke="#FDFDFD" stroke-opacity="0.17"/>
<path d="M-78.1223 37.3168C-34.9436 39.2395 44.8355 41.3875 57.6782 38.9679C71.3236 36.3971 133.65 26.1518 172.082 45.9746C210.514 65.7974 218.151 133.079 224.631 148.82C232.901 168.912 252.788 186.518 274.882 197.913C292.871 207.192 310.837 212.502 331.844 219.945" stroke="#FDFDFD" stroke-opacity="0.17"/>
<path d="M-84.0815 48.8705C-40.9028 50.7931 38.8763 52.9412 51.719 50.5216C65.3644 47.9507 127.691 37.7054 166.123 57.5282C204.555 77.351 212.192 144.633 218.671 160.373C226.942 180.466 246.829 198.071 268.922 209.467C286.912 218.746 304.878 224.056 325.884 231.499" stroke="#FDFDFD" stroke-opacity="0.17"/>
<path d="M-90.0408 60.4242C-46.8621 62.3468 32.917 64.4949 45.7598 62.0753C59.4052 59.5045 121.731 49.2592 160.164 69.082C198.596 88.9048 206.233 156.187 212.712 171.927C220.983 192.02 240.87 209.625 262.963 221.02C280.953 230.299 298.919 235.609 319.925 243.053" stroke="#FDFDFD" stroke-opacity="0.17"/>
<path d="M-96 71.9778C-52.8213 73.9005 26.9578 76.0485 39.8005 73.6289C53.4459 71.0581 115.772 60.8128 154.204 80.6356C192.636 100.458 200.273 167.74 206.753 183.481C215.024 203.573 234.911 221.179 257.004 232.574C274.993 241.853 292.959 247.163 313.966 254.606" stroke="#FDFDFD" stroke-opacity="0.17"/>
</g>
<g opacity="0.8">
<path d="M341.463 238.961C295.841 214.686 212.36 168.674 200.523 158.98C187.947 148.681 129.638 102.875 78.5358 96.2449C27.4335 89.6149 -19.4255 140.675 -35.2254 149.809C-55.3938 161.469 -86.0949 164.114 -115.472 160.303C-139.392 157.2 -160.988 150.829 -186.955 144.4" stroke="#FDFDFD" stroke-opacity="0.17"/>
<path d="M323.361 236.613C277.738 212.338 194.257 166.325 182.421 156.632C169.845 146.332 111.535 100.526 60.4331 93.8963C9.33089 87.2663 -37.5282 138.326 -53.3281 147.461C-73.4965 159.121 -104.198 161.766 -133.574 157.954C-157.495 154.851 -179.091 148.48 -205.058 142.052" stroke="#FDFDFD" stroke-opacity="0.17"/>
<path d="M305.258 234.264C259.635 209.989 176.154 163.977 164.318 154.283C151.742 143.983 93.4325 98.1776 42.3302 91.5476C-8.77202 84.9176 -55.6311 135.977 -71.431 145.112C-91.5994 156.772 -122.3 159.417 -151.677 155.606C-175.597 152.502 -197.194 146.131 -223.161 139.703" stroke="#FDFDFD" stroke-opacity="0.17"/>
<path d="M287.155 231.915C241.532 207.64 158.051 161.628 146.215 151.934C133.639 141.635 75.3297 95.829 24.2275 89.199C-26.8748 82.569 -73.7339 133.629 -89.5338 142.763C-109.702 154.423 -140.403 157.068 -169.78 153.257C-193.7 150.154 -215.297 143.783 -241.263 137.355" stroke="#FDFDFD" stroke-opacity="0.17"/>
<path d="M269.052 229.566C223.43 205.292 139.949 159.279 128.112 149.586C115.536 139.286 57.2269 93.4803 6.12467 86.8503C-44.9776 80.2203 -91.8366 131.28 -107.637 140.415C-127.805 152.075 -158.506 154.72 -187.883 150.908C-211.803 147.805 -233.399 141.434 -259.366 135.006" stroke="#FDFDFD" stroke-opacity="0.17"/>
<path d="M377.372 250.725C331.749 226.45 248.268 180.438 236.432 170.744C223.856 160.444 165.547 114.639 114.444 108.009C63.342 101.379 16.4829 152.438 0.683001 161.573C-19.4854 173.233 -50.1865 175.878 -79.5632 172.067C-103.483 168.963 -125.08 162.592 -151.047 156.164" stroke="#FDFDFD" stroke-opacity="0.17"/>
<path d="M376.82 263.848C331.197 239.573 247.716 193.561 235.88 183.867C223.304 173.568 164.995 127.762 113.892 121.132C62.79 114.502 15.9309 165.562 0.130999 174.696C-20.0374 186.356 -50.7385 189.001 -80.1152 185.19C-104.035 182.087 -125.632 175.716 -151.599 169.287" stroke="#FDFDFD" stroke-opacity="0.17"/>
<path d="M376.268 276.971C330.645 252.697 247.164 206.684 235.328 196.991C222.752 186.691 164.442 140.885 113.34 134.255C62.2379 127.625 15.3788 178.685 -0.421125 187.819C-20.5895 199.479 -51.2906 202.125 -80.6673 198.313C-104.588 195.21 -126.184 188.839 -152.151 182.411" stroke="#FDFDFD" stroke-opacity="0.17"/>
<path d="M375.716 290.095C330.093 265.82 246.612 219.807 234.776 210.114C222.2 199.814 163.89 154.008 112.788 147.378C61.6859 140.748 14.8268 191.808 -0.973127 200.943C-21.1415 212.603 -51.8426 215.248 -81.2193 211.437C-105.14 208.333 -126.736 201.962 -152.703 195.534" stroke="#FDFDFD" stroke-opacity="0.17"/>
<path d="M338.196 251.601C292.573 227.326 209.092 181.314 197.256 171.62C184.68 161.321 126.37 115.515 75.268 108.885C24.1657 102.255 -22.6933 153.315 -38.4933 162.449C-58.6616 174.109 -89.3627 176.754 -118.739 172.943C-142.66 169.84 -164.256 163.469 -190.223 157.04" stroke="#FDFDFD" stroke-opacity="0.17"/>
<path d="M320.093 249.253C274.47 224.978 190.989 178.965 179.153 169.272C166.577 158.972 108.268 113.166 57.1654 106.536C6.06319 99.9063 -40.7959 150.966 -56.5958 160.101C-76.7642 171.761 -107.465 174.406 -136.842 170.595C-160.762 167.491 -182.359 161.12 -208.325 154.692" stroke="#FDFDFD" stroke-opacity="0.17"/>
<path d="M301.99 246.904C256.367 222.629 172.886 176.617 161.05 166.923C148.474 156.624 90.1648 110.818 39.0625 104.188C-12.0397 97.5576 -58.8988 148.618 -74.6987 157.752C-94.8671 169.412 -125.568 172.057 -154.945 168.246C-178.865 165.142 -200.461 158.771 -226.428 152.343" stroke="#FDFDFD" stroke-opacity="0.17"/>
<path d="M283.887 244.555C238.265 220.28 154.784 174.268 142.947 164.574C130.371 154.275 72.062 108.469 20.9598 101.839C-30.1425 95.209 -77.0016 146.269 -92.8015 155.403C-112.97 167.063 -143.671 169.709 -173.048 165.897C-196.968 162.794 -218.564 156.423 -244.531 149.995" stroke="#FDFDFD" stroke-opacity="0.17"/>
<path d="M265.785 242.206C220.162 217.932 136.681 171.919 124.845 162.226C112.269 151.926 53.9592 106.12 2.85697 99.4903C-48.2453 92.8603 -95.1043 143.92 -110.904 153.055C-131.073 164.715 -161.774 167.36 -191.15 163.548C-215.071 160.445 -236.667 154.074 -262.634 147.646" stroke="#FDFDFD" stroke-opacity="0.17"/>
<path d="M374.104 263.365C328.481 239.09 245 193.078 233.164 183.384C220.588 173.085 162.279 127.279 111.177 120.649C60.0743 114.019 13.2152 165.079 -2.5847 174.213C-22.7531 185.873 -53.4542 188.518 -82.8309 184.707C-106.751 181.603 -128.347 175.232 -154.314 168.804" stroke="#FDFDFD" stroke-opacity="0.17"/>
<path d="M373.552 276.488C327.929 252.213 244.448 206.201 232.612 196.507C220.036 186.208 161.727 140.402 110.625 133.772C59.5223 127.142 12.6632 178.202 -3.1367 187.336C-23.3051 198.996 -54.0062 201.641 -83.3829 197.83C-107.303 194.727 -128.899 188.356 -154.866 181.927" stroke="#FDFDFD" stroke-opacity="0.17"/>
<path d="M373 289.611C327.377 265.337 243.896 219.324 232.06 209.631C219.484 199.331 161.175 153.525 110.072 146.895C58.9702 140.265 12.1111 191.325 -3.68882 200.459C-23.8572 212.119 -54.5583 214.765 -83.935 210.953C-107.855 207.85 -129.452 201.479 -155.418 195.051" stroke="#FDFDFD" stroke-opacity="0.17"/>
<path d="M372.448 302.735C326.825 278.46 243.344 232.447 231.508 222.754C218.932 212.454 160.623 166.648 109.52 160.018C58.4182 153.388 11.5591 204.448 -4.24083 213.583C-24.4092 225.243 -55.1103 227.888 -84.487 224.077C-108.407 220.973 -130.004 214.602 -155.97 208.174" stroke="#FDFDFD" stroke-opacity="0.17"/>
<path d="M378.428 210.657C325.257 197.549 227.4 171.98 212.403 165.204C196.469 158.004 123.278 126.559 71.0024 132.315C18.727 138.07 -8.97217 200.145 -21.174 213.042C-36.7493 229.504 -65.8078 239.551 -95.859 242.859C-120.328 245.553 -143.684 244.438 -171.331 244.321" stroke="#FDFDFD" stroke-opacity="0.17"/>
<path d="M359.909 212.696C306.739 199.588 208.882 174.019 193.885 167.243C177.95 160.043 104.759 128.598 52.4841 134.353C0.208651 140.109 -27.4905 202.184 -39.6923 215.081C-55.2677 231.543 -84.3261 241.59 -114.377 244.898C-138.847 247.592 -162.203 246.477 -189.849 246.36" stroke="#FDFDFD" stroke-opacity="0.17"/>
<path d="M341.391 214.735C288.22 201.627 190.363 176.058 175.366 169.282C159.432 162.082 86.2411 130.637 33.9656 136.392C-18.3098 142.148 -46.0089 204.223 -58.2107 217.119C-73.7861 233.582 -102.845 243.628 -132.896 246.937C-157.365 249.631 -180.721 248.515 -208.367 248.399" stroke="#FDFDFD" stroke-opacity="0.17"/>
<path d="M322.873 216.773C269.702 203.666 171.845 178.097 156.848 171.321C140.914 164.121 67.7227 132.676 15.4473 138.431C-36.8281 144.186 -64.5272 206.261 -76.729 219.158C-92.3044 235.621 -121.363 245.667 -151.414 248.976C-175.883 251.67 -199.239 250.554 -226.886 250.438" stroke="#FDFDFD" stroke-opacity="0.17"/>
<path d="M304.354 218.812C251.184 205.705 153.327 180.135 138.33 173.359C122.395 166.16 49.2044 134.715 -3.07099 140.47C-55.3464 146.225 -83.0455 208.3 -95.2473 221.197C-110.823 237.66 -139.881 247.706 -169.932 251.015C-194.402 253.709 -217.758 252.593 -245.404 252.476" stroke="#FDFDFD" stroke-opacity="0.17"/>
<path d="M417.677 213.675C364.506 200.568 266.649 174.999 251.652 168.222C235.717 161.023 162.527 129.578 110.251 135.333C57.9759 141.088 30.2767 203.163 18.0749 216.06C2.49956 232.523 -26.5589 242.569 -56.6101 245.878C-81.0794 248.572 -104.436 247.456 -132.082 247.34" stroke="#FDFDFD" stroke-opacity="0.17"/>
<path d="M421.785 226.853C368.614 213.746 270.757 188.177 255.76 181.4C239.826 174.201 166.635 142.756 114.36 148.511C62.0841 154.266 34.385 216.341 22.1832 229.238C6.60784 245.701 -22.4506 255.747 -52.5018 259.056C-76.9711 261.75 -100.327 260.634 -127.974 260.518" stroke="#FDFDFD" stroke-opacity="0.17"/>
<path d="M425.893 240.032C372.722 226.924 274.865 201.355 259.868 194.579C243.934 187.379 170.743 155.934 118.468 161.689C66.1923 167.445 38.4932 229.519 26.2914 242.416C10.716 258.879 -18.3425 268.925 -48.3936 272.234C-72.863 274.928 -96.2191 273.812 -123.865 273.696" stroke="#FDFDFD" stroke-opacity="0.17"/>
<path d="M430.001 253.21C376.831 240.102 278.974 214.533 263.977 207.757C248.042 200.557 174.851 169.112 122.576 174.867C70.3004 180.623 42.6013 242.698 30.3995 255.594C14.8241 272.057 -14.2343 282.103 -44.2855 285.412C-68.7548 288.106 -92.1109 286.99 -119.757 286.874" stroke="#FDFDFD" stroke-opacity="0.17"/>
<path d="M450.553 207.238C397.382 194.131 299.525 168.561 284.528 161.785C268.593 154.585 195.403 123.14 143.127 128.896C90.8518 134.651 63.1527 196.726 50.9509 209.623C35.3755 226.085 6.31707 236.132 -23.7341 239.44C-48.2034 242.134 -71.5595 241.019 -99.2059 240.902" stroke="#FDFDFD" stroke-opacity="0.17"/>
<path d="M432.034 209.277C378.864 196.169 281.007 170.6 266.01 163.824C250.075 156.624 176.884 125.179 124.609 130.935C72.3335 136.69 44.6344 198.765 32.4326 211.662C16.8572 228.124 -12.2012 238.171 -42.2524 241.479C-66.7217 244.173 -90.0778 243.058 -117.724 242.941" stroke="#FDFDFD" stroke-opacity="0.17"/>
<path d="M413.516 211.316C360.345 198.208 262.488 172.639 247.491 165.863C231.557 158.663 158.366 127.218 106.09 132.973C53.815 138.729 26.1158 200.804 13.9141 213.701C-1.66133 230.163 -30.7198 240.21 -60.7709 243.518C-85.2403 246.212 -108.596 245.097 -136.243 244.98" stroke="#FDFDFD" stroke-opacity="0.17"/>
<path d="M394.997 213.355C341.827 200.247 243.97 174.678 228.973 167.902C213.038 160.702 139.847 129.257 87.5721 135.012C35.2967 140.768 7.59753 202.842 -4.60426 215.739C-20.1796 232.202 -49.2381 242.248 -79.2893 245.557C-103.759 248.251 -127.115 247.135 -154.761 247.019" stroke="#FDFDFD" stroke-opacity="0.17"/>
<path d="M376.479 215.393C323.309 202.286 225.452 176.717 210.454 169.94C194.52 162.741 121.329 131.296 69.0538 137.051C16.7784 142.806 -10.9208 204.881 -23.1226 217.778C-38.698 234.241 -67.7564 244.287 -97.8076 247.596C-122.277 250.29 -145.633 249.174 -173.279 249.058" stroke="#FDFDFD" stroke-opacity="0.17"/>
<path d="M489.802 210.256C436.631 197.149 338.774 171.58 323.777 164.804C307.842 157.604 234.652 126.159 182.376 131.914C130.101 137.669 102.402 199.744 90.1998 212.641C74.6244 229.104 45.566 239.15 15.5148 242.459C-8.95452 245.153 -32.3106 244.037 -59.957 243.921" stroke="#FDFDFD" stroke-opacity="0.17"/>
<path d="M493.91 223.435C440.739 210.327 342.882 184.758 327.885 177.982C311.951 170.782 238.76 139.337 186.484 145.092C134.209 150.848 106.51 212.922 94.308 225.819C78.7326 242.282 49.6741 252.328 19.623 255.637C-4.84637 258.331 -28.2025 257.215 -55.8488 257.099" stroke="#FDFDFD" stroke-opacity="0.17"/>
<path d="M498.018 236.613C444.847 223.505 346.99 197.936 331.993 191.16C316.059 183.96 242.868 152.515 190.592 158.27C138.317 164.026 110.618 226.101 98.4161 238.997C82.8407 255.46 53.7823 265.506 23.7311 268.815C-0.738215 271.509 -24.0943 270.393 -51.7406 270.277" stroke="#FDFDFD" stroke-opacity="0.17"/>
<path d="M502.126 249.791C448.955 236.683 351.099 211.114 336.101 204.338C320.167 197.138 246.976 165.693 194.701 171.448C142.425 177.204 114.726 239.279 102.524 252.176C86.949 268.638 57.8906 278.685 27.8394 281.993C3.37006 284.687 -19.986 283.572 -47.6324 283.455" stroke="#FDFDFD" stroke-opacity="0.17"/>
</g>
<g opacity="0.8">
<path d="M411.463 340.961C365.841 316.686 282.36 270.674 270.523 260.98C257.947 250.681 199.638 204.875 148.536 198.245C97.4335 191.615 50.5745 242.675 34.7746 251.809C14.6062 263.469 -16.0949 266.114 -45.4716 262.303C-69.3919 259.2 -90.9882 252.829 -116.955 246.4" stroke="#FDFDFD" stroke-opacity="0.17"/>
<path d="M393.361 338.613C347.738 314.338 264.257 268.325 252.421 258.632C239.845 248.332 181.535 202.526 130.433 195.896C79.3309 189.266 32.4718 240.326 16.6719 249.461C-3.49648 261.121 -34.1976 263.766 -63.5743 259.954C-87.4945 256.851 -109.091 250.48 -135.058 244.052" stroke="#FDFDFD" stroke-opacity="0.17"/>
<path d="M375.258 336.264C329.635 311.989 246.154 265.977 234.318 256.283C221.742 245.983 163.432 200.178 112.33 193.548C61.228 186.918 14.3689 237.977 -1.43101 247.112C-21.5994 258.772 -52.3005 261.417 -81.6772 257.606C-105.597 254.502 -127.194 248.131 -153.161 241.703" stroke="#FDFDFD" stroke-opacity="0.17"/>
<path d="M357.155 333.915C311.532 309.64 228.051 263.628 216.215 253.934C203.639 243.635 145.33 197.829 94.2275 191.199C43.1252 184.569 -3.73386 235.629 -19.5338 244.763C-39.7022 256.423 -70.4033 259.068 -99.78 255.257C-123.7 252.154 -145.297 245.783 -171.263 239.355" stroke="#FDFDFD" stroke-opacity="0.17"/>
<path d="M339.052 331.566C293.43 307.292 209.949 261.279 198.112 251.586C185.536 241.286 127.227 195.48 76.1247 188.85C25.0224 182.22 -21.8366 233.28 -37.6366 242.415C-57.805 254.075 -88.506 256.72 -117.883 252.908C-141.803 249.805 -163.399 243.434 -189.366 237.006" stroke="#FDFDFD" stroke-opacity="0.17"/>
<path d="M447.372 352.725C401.749 328.45 318.268 282.438 306.432 272.744C293.856 262.444 235.547 216.639 184.444 210.009C133.342 203.379 86.4829 254.438 70.683 263.573C50.5146 275.233 19.8135 277.878 -9.5632 274.067C-33.4834 270.963 -55.0797 264.592 -81.0465 258.164" stroke="#FDFDFD" stroke-opacity="0.17"/>
<path d="M446.82 365.848C401.197 341.573 317.716 295.561 305.88 285.867C293.304 275.568 234.995 229.762 183.892 223.132C132.79 216.502 85.9309 267.562 70.131 276.696C49.9626 288.356 19.2615 291.001 -10.1152 287.19C-34.0354 284.087 -55.6317 277.716 -81.5985 271.287" stroke="#FDFDFD" stroke-opacity="0.17"/>
<path d="M446.268 378.971C400.645 354.697 317.164 308.684 305.328 298.991C292.752 288.691 234.442 242.885 183.34 236.255C132.238 229.625 85.3788 280.685 69.5789 289.819C49.4105 301.479 18.7094 304.125 -10.6673 300.313C-34.5875 297.21 -56.1839 290.839 -82.1506 284.411" stroke="#FDFDFD" stroke-opacity="0.17"/>
<path d="M445.716 392.095C400.093 367.82 316.612 321.807 304.776 312.114C292.2 301.814 233.89 256.008 182.788 249.378C131.686 242.748 84.8268 293.808 69.0269 302.943C48.8585 314.603 18.1574 317.248 -11.2193 313.437C-35.1395 310.333 -56.7359 303.962 -82.7026 297.534" stroke="#FDFDFD" stroke-opacity="0.17"/>
<path d="M408.196 353.601C362.573 329.326 279.092 283.314 267.256 273.62C254.68 263.321 196.37 217.515 145.268 210.885C94.1657 204.255 47.3067 255.315 31.5067 264.449C11.3384 276.109 -19.3627 278.754 -48.7395 274.943C-72.6597 271.84 -94.256 265.469 -120.223 259.04" stroke="#FDFDFD" stroke-opacity="0.17"/>
<path d="M390.093 351.253C344.47 326.978 260.989 280.965 249.153 271.272C236.577 260.972 178.268 215.166 127.165 208.536C76.0632 201.906 29.2041 252.966 13.4042 262.101C-6.76418 273.761 -37.4653 276.406 -66.842 272.595C-90.7622 269.491 -112.359 263.12 -138.325 256.692" stroke="#FDFDFD" stroke-opacity="0.17"/>
<path d="M371.99 348.904C326.367 324.629 242.886 278.617 231.05 268.923C218.474 258.624 160.165 212.818 109.063 206.188C57.9603 199.558 11.1012 250.618 -4.69871 259.752C-24.8671 271.412 -55.5682 274.057 -84.9449 270.246C-108.865 267.142 -130.461 260.771 -156.428 254.343" stroke="#FDFDFD" stroke-opacity="0.17"/>
<path d="M353.887 346.555C308.265 322.28 224.784 276.268 212.947 266.574C200.371 256.275 142.062 210.469 90.9598 203.839C39.8575 197.209 -7.00156 248.269 -22.8015 257.403C-42.9699 269.063 -73.671 271.709 -103.048 267.897C-126.968 264.794 -148.564 258.423 -174.531 251.995" stroke="#FDFDFD" stroke-opacity="0.17"/>
<path d="M335.785 344.206C290.162 319.932 206.681 273.919 194.845 264.226C182.269 253.926 123.959 208.12 72.857 201.49C21.7547 194.86 -25.1043 245.92 -40.9043 255.055C-61.0727 266.715 -91.7737 269.36 -121.15 265.548C-145.071 262.445 -166.667 256.074 -192.634 249.646" stroke="#FDFDFD" stroke-opacity="0.17"/>
<path d="M444.104 365.365C398.481 341.09 315 295.078 303.164 285.384C290.588 275.085 232.279 229.279 181.177 222.649C130.074 216.019 83.2152 267.079 67.4153 276.213C47.2469 287.873 16.5458 290.518 -12.8309 286.707C-36.7511 283.603 -58.3474 277.232 -84.3142 270.804" stroke="#FDFDFD" stroke-opacity="0.17"/>
<path d="M443.552 378.488C397.929 354.213 314.448 308.201 302.612 298.507C290.036 288.208 231.727 242.402 180.625 235.772C129.522 229.142 82.6632 280.202 66.8633 289.336C46.6949 300.996 15.9938 303.641 -13.3829 299.83C-37.3031 296.727 -58.8994 290.356 -84.8662 283.927" stroke="#FDFDFD" stroke-opacity="0.17"/>
<path d="M443 391.611C397.377 367.337 313.896 321.324 302.06 311.631C289.484 301.331 231.175 255.525 180.072 248.895C128.97 242.265 82.1111 293.325 66.3112 302.459C46.1428 314.119 15.4417 316.765 -13.935 312.953C-37.8552 309.85 -59.4516 303.479 -85.4183 297.051" stroke="#FDFDFD" stroke-opacity="0.17"/>
<path d="M442.448 404.735C396.825 380.46 313.344 334.447 301.508 324.754C288.932 314.454 230.623 268.648 179.52 262.018C128.418 255.388 81.5591 306.448 65.7592 315.583C45.5908 327.243 14.8897 329.888 -14.487 326.077C-38.4072 322.973 -60.0036 316.602 -85.9703 310.174" stroke="#FDFDFD" stroke-opacity="0.17"/>
<path d="M448.428 312.657C395.257 299.549 297.4 273.98 282.403 267.204C266.469 260.004 193.278 228.559 141.002 234.315C88.727 240.07 61.0278 302.145 48.826 315.042C33.2507 331.504 4.19219 341.551 -25.859 344.859C-50.3283 347.553 -73.6844 346.438 -101.331 346.321" stroke="#FDFDFD" stroke-opacity="0.17"/>
<path d="M429.909 314.696C376.739 301.588 278.882 276.019 263.885 269.243C247.95 262.043 174.759 230.598 122.484 236.353C70.2087 242.109 42.5095 304.184 30.3077 317.081C14.7323 333.543 -14.3261 343.59 -44.3773 346.898C-68.8466 349.592 -92.2027 348.477 -119.849 348.36" stroke="#FDFDFD" stroke-opacity="0.17"/>
<path d="M411.391 316.735C358.22 303.627 260.363 278.058 245.366 271.282C229.432 264.082 156.241 232.637 103.966 238.392C51.6902 244.148 23.9911 306.223 11.7893 319.119C-3.78609 335.582 -32.8446 345.628 -62.8957 348.937C-87.365 351.631 -110.721 350.515 -138.367 350.399" stroke="#FDFDFD" stroke-opacity="0.17"/>
<path d="M392.873 318.773C339.702 305.666 241.845 280.097 226.848 273.321C210.914 266.121 137.723 234.676 85.4473 240.431C33.1719 246.186 5.47277 308.261 -6.72901 321.158C-22.3044 337.621 -51.3629 347.667 -81.414 350.976C-105.883 353.67 -129.239 352.554 -156.886 352.438" stroke="#FDFDFD" stroke-opacity="0.17"/>
<path d="M374.354 320.812C321.184 307.705 223.327 282.135 208.33 275.359C192.395 268.16 119.204 236.715 66.929 242.47C14.6536 248.225 -13.0455 310.3 -25.2473 323.197C-40.8227 339.66 -69.8812 349.706 -99.9323 353.015C-124.402 355.709 -147.758 354.593 -175.404 354.476" stroke="#FDFDFD" stroke-opacity="0.17"/>
<path d="M487.677 315.675C434.506 302.568 336.649 276.999 321.652 270.222C305.717 263.023 232.527 231.578 180.251 237.333C127.976 243.088 100.277 305.163 88.0749 318.06C72.4996 334.523 43.4411 344.569 13.3899 347.878C-11.0794 350.572 -34.4355 349.456 -62.0818 349.34" stroke="#FDFDFD" stroke-opacity="0.17"/>
<path d="M491.785 328.853C438.614 315.746 340.757 290.177 325.76 283.4C309.826 276.201 236.635 244.756 184.36 250.511C132.084 256.266 104.385 318.341 92.1832 331.238C76.6078 347.701 47.5494 357.747 17.4982 361.056C-6.97112 363.75 -30.3272 362.634 -57.9736 362.518" stroke="#FDFDFD" stroke-opacity="0.17"/>
<path d="M495.893 342.032C442.722 328.924 344.865 303.355 329.868 296.579C313.934 289.379 240.743 257.934 188.468 263.689C136.192 269.445 108.493 331.519 96.2914 344.416C80.716 360.879 51.6575 370.925 21.6064 374.234C-2.86297 376.928 -26.2191 375.812 -53.8654 375.696" stroke="#FDFDFD" stroke-opacity="0.17"/>
<path d="M500.001 355.21C446.831 342.102 348.974 316.533 333.977 309.757C318.042 302.557 244.851 271.112 192.576 276.867C140.3 282.623 112.601 344.698 100.4 357.594C84.8241 374.057 55.7657 384.103 25.7145 387.412C1.24518 390.106 -22.1109 388.99 -49.7572 388.874" stroke="#FDFDFD" stroke-opacity="0.17"/>
<path d="M520.553 309.238C467.382 296.131 369.525 270.561 354.528 263.785C338.593 256.585 265.403 225.14 213.127 230.896C160.852 236.651 133.153 298.726 120.951 311.623C105.376 328.085 76.3171 338.132 46.2659 341.44C21.7966 344.134 -1.55953 343.019 -29.2059 342.902" stroke="#FDFDFD" stroke-opacity="0.17"/>
<path d="M502.034 311.277C448.864 298.169 351.007 272.6 336.01 265.824C320.075 258.624 246.884 227.179 194.609 232.935C142.334 238.69 114.634 300.765 102.433 313.662C86.8572 330.124 57.7988 340.171 27.7476 343.479C3.27826 346.173 -20.0778 345.058 -47.7242 344.941" stroke="#FDFDFD" stroke-opacity="0.17"/>
<path d="M483.516 313.316C430.345 300.208 332.488 274.639 317.491 267.863C301.557 260.663 228.366 229.218 176.09 234.973C123.815 240.729 96.1158 302.804 83.9141 315.701C68.3387 332.163 39.2802 342.21 9.22905 345.518C-15.2403 348.212 -38.5964 347.097 -66.2427 346.98" stroke="#FDFDFD" stroke-opacity="0.17"/>
<path d="M464.997 315.355C411.827 302.247 313.97 276.678 298.973 269.902C283.038 262.702 209.847 231.257 157.572 237.012C105.297 242.768 77.5975 304.842 65.3957 317.739C49.8204 334.202 20.7619 344.248 -9.28926 347.557C-33.7586 350.251 -57.1147 349.135 -84.761 349.019" stroke="#FDFDFD" stroke-opacity="0.17"/>
<path d="M446.479 317.393C393.309 304.286 295.452 278.717 280.454 271.94C264.52 264.741 191.329 233.296 139.054 239.051C86.7784 244.806 59.0792 306.881 46.8774 319.778C31.302 336.241 2.24358 346.287 -27.8076 349.596C-52.2769 352.29 -75.633 351.174 -103.279 351.058" stroke="#FDFDFD" stroke-opacity="0.17"/>
<path d="M559.802 312.256C506.631 299.149 408.774 273.58 393.777 266.804C377.842 259.604 304.652 228.159 252.376 233.914C200.101 239.669 172.402 301.744 160.2 314.641C144.624 331.104 115.566 341.15 85.5148 344.459C61.0455 347.153 37.6894 346.037 10.043 345.921" stroke="#FDFDFD" stroke-opacity="0.17"/>
<path d="M563.91 325.435C510.739 312.327 412.882 286.758 397.885 279.982C381.951 272.782 308.76 241.337 256.484 247.092C204.209 252.848 176.51 314.922 164.308 327.819C148.733 344.282 119.674 354.328 89.623 357.637C65.1536 360.331 41.7975 359.215 14.1512 359.099" stroke="#FDFDFD" stroke-opacity="0.17"/>
<path d="M568.018 338.613C514.847 325.505 416.99 299.936 401.993 293.16C386.059 285.96 312.868 254.515 260.592 260.27C208.317 266.026 180.618 328.101 168.416 340.997C152.841 357.46 123.782 367.506 93.7311 370.815C69.2618 373.509 45.9057 372.393 18.2594 372.277" stroke="#FDFDFD" stroke-opacity="0.17"/>
<path d="M572.126 351.791C518.955 338.683 421.099 313.114 406.101 306.338C390.167 299.138 316.976 267.693 264.701 273.448C212.425 279.204 184.726 341.279 172.524 354.176C156.949 370.638 127.891 380.685 97.8394 383.993C73.3701 386.687 50.014 385.572 22.3676 385.455" stroke="#FDFDFD" stroke-opacity="0.17"/>
</g>
</svg>
